<svg width="134" height="166" viewBox="0 0 134 166" fill="none" xmlns="http://www.w3.org/2000/svg">
    <style>
        @media (prefers-color-scheme: dark) {
            :root {
                filter: invert(100%);
            }
        }
    </style>
<path fill-rule="evenodd" clip-rule="evenodd" d="M64.6653 0.286621H0.697723V31.1288H37.1173H60.9301C64.1984 31.1288 67.5446 31.3626 70.9687 31.8299C74.3927 32.2972 77.4277 33.2318 80.0737 34.6337C82.7197 35.88 84.8984 37.7492 86.6106 40.2415C88.3225 42.7338 89.1784 46.0828 89.1784 50.2884C89.1784 54.8058 88.1667 58.3106 86.1437 60.8029C84.2758 63.2952 81.8634 65.1644 78.9063 66.4107C75.9491 67.5012 72.603 68.202 68.8678 68.5134C65.288 68.6693 61.8639 68.7472 58.5953 68.7472H37.1173H0.697723V165.713H37.1173V99.5893H55.0937L89.6453 165.713H133.302L91.2796 95.851C102.952 93.6701 111.824 88.5299 117.894 80.4298C123.964 72.1741 126.999 62.2048 126.999 50.5222C126.999 40.8646 125.287 32.8424 121.863 26.4558C118.594 19.9135 114.081 14.7731 108.322 11.0347C102.719 7.14046 96.1044 4.41449 88.4782 2.85681C81.0075 1.14336 73.0699 0.286621 64.6653 0.286621Z" fill="black"/>
<mask id="mask0_0_1" style="mask-type:alpha" maskUnits="userSpaceOnUse" x="0" y="0" width="134" height="166">
<path fill-rule="evenodd" clip-rule="evenodd" d="M64.6653 0.286621H0.697723V31.1288H37.1173H60.9301C64.1984 31.1288 67.5446 31.3626 70.9687 31.8299C74.3927 32.2972 77.4277 33.2318 80.0737 34.6337C82.7197 35.88 84.8984 37.7492 86.6106 40.2415C88.3225 42.7338 89.1784 46.0828 89.1784 50.2884C89.1784 54.8058 88.1667 58.3106 86.1437 60.8029C84.2758 63.2952 81.8634 65.1644 78.9063 66.4107C75.9491 67.5012 72.603 68.202 68.8678 68.5134C65.288 68.6693 61.8639 68.7472 58.5953 68.7472H37.1173H0.697723V165.713H37.1173V99.5893H55.0937L89.6453 165.713H133.302L91.2796 95.851C102.952 93.6701 111.824 88.5299 117.894 80.4298C123.964 72.1741 126.999 62.2048 126.999 50.5222C126.999 40.8646 125.287 32.8424 121.863 26.4558C118.594 19.9135 114.081 14.7731 108.322 11.0347C102.719 7.14046 96.1044 4.41449 88.4782 2.85681C81.0075 1.14336 73.0699 0.286621 64.6653 0.286621Z" fill="black"/>
</mask>
<g mask="url(#mask0_0_1)">
<circle cx="65.5091" cy="-9.72684" r="22.2141" transform="rotate(134.439 65.5091 -9.72684)" fill="#2F80ED"/>
<circle cx="27.8764" cy="26.1232" r="7.12121" transform="rotate(-30.5606 27.8764 26.1232)" fill="#2F80ED"/>
<circle cx="1.66466" cy="15.6081" r="15.735" transform="rotate(134.439 1.66466 15.6081)" fill="#EB5757"/>
<circle cx="47.1559" cy="19.3244" r="7.69485" transform="rotate(-30.5606 47.1559 19.3244)" fill="#EB5757"/>
<circle cx="54.318" cy="50.5984" r="15.735" transform="rotate(134.439 54.318 50.5984)" fill="#F2C94C"/>
<circle cx="29.8177" cy="2.63889" r="9.27302" transform="rotate(-30.5606 29.8177 2.63889)" fill="#F2C94C"/>
</g>
</svg>
